<?xml version="1.0" encoding="UTF-8" standalone="no"?>
<!-- Generator: Adobe Illustrator 17.0.0, SVG Export Plug-In . SVG Version: 6.00 Build 0)  -->

<svg
   xmlns:dc="http://purl.org/dc/elements/1.1/"
   xmlns:cc="http://creativecommons.org/ns#"
   xmlns:rdf="http://www.w3.org/1999/02/22-rdf-syntax-ns#"
   xmlns:svg="http://www.w3.org/2000/svg"
   xmlns="http://www.w3.org/2000/svg"
   xmlns:sodipodi="http://sodipodi.sourceforge.net/DTD/sodipodi-0.dtd"
   xmlns:inkscape="http://www.inkscape.org/namespaces/inkscape"
   version="1.1"
   id="Ebene_1"
   x="0px"
   y="0px"
   width="380"
   height="55.993"
   viewBox="0 0 380 55.993"
   enable-background="new 0 0 223.972 55.993"
   xml:space="preserve"
   sodipodi:docname="library-logo_name.svg"
   inkscape:version="0.92.4 (5da689c313, 2019-01-14)"><metadata
   id="metadata475"><rdf:RDF><cc:Work
       rdf:about=""><dc:format>image/svg+xml</dc:format><dc:type
         rdf:resource="http://purl.org/dc/dcmitype/StillImage" /><dc:title></dc:title></cc:Work></rdf:RDF></metadata><defs
   id="defs473" /><sodipodi:namedview
   pagecolor="#ffffff"
   bordercolor="#666666"
   borderopacity="1"
   objecttolerance="10"
   gridtolerance="10"
   guidetolerance="10"
   inkscape:pageopacity="0"
   inkscape:pageshadow="2"
   inkscape:window-width="1578"
   inkscape:window-height="902"
   id="namedview471"
   showgrid="false"
   inkscape:zoom="3.52"
   inkscape:cx="247.55701"
   inkscape:cy="-17.458045"
   inkscape:window-x="32"
   inkscape:window-y="48"
   inkscape:window-maximized="0"
   inkscape:current-layer="Ebene_1" />
<g
   id="g468"
   inkscape:export-xdpi="107.94"
   inkscape:export-ydpi="107.94">
	<g
   id="g460">
		<path
   d="m 43.275,9.644 c 0.437,0.277 0.948,0.437 1.641,0.437 0.917,0 1.674,-0.469 1.674,-1.524 0,-1.461 -3.411,-1.642 -3.411,-3.592 0,-1.194 1.045,-1.94 2.356,-1.94 0.362,0 0.948,0.053 1.46,0.245 L 46.878,3.942 C 46.548,3.76 46.025,3.665 45.524,3.665 c -0.767,0 -1.609,0.32 -1.609,1.279 0,1.493 3.411,1.503 3.411,3.678 0,1.503 -1.289,2.1 -2.441,2.1 -0.725,0 -1.289,-0.149 -1.684,-0.32 z"
   id="path278"
   inkscape:connector-curvature="0"
   style="fill:#0d0e0e" />
		<path
   d="M 53.103,5.88 C 52.741,5.72 52.304,5.603 51.941,5.603 c -1.311,0 -2.047,0.949 -2.047,2.27 0,1.237 0.746,2.271 1.972,2.271 0.427,0 0.821,-0.096 1.226,-0.245 l 0.064,0.629 c -0.459,0.16 -0.885,0.192 -1.396,0.192 -1.749,0 -2.601,-1.333 -2.601,-2.846 0,-1.674 1.077,-2.846 2.687,-2.846 0.65,0 1.119,0.149 1.311,0.213 z"
   id="path280"
   inkscape:connector-curvature="0"
   style="fill:#0d0e0e" />
		<path
   d="M 55.128,2.597 H 55.8 v 3.475 h 0.022 c 0.288,-0.597 0.895,-1.045 1.695,-1.045 1.461,0 1.855,0.97 1.855,2.313 v 3.251 H 58.701 V 7.352 c 0,-0.938 -0.181,-1.748 -1.29,-1.748 -1.194,0 -1.61,1.13 -1.61,2.079 v 2.91 H 55.13 V 2.597 Z"
   id="path282"
   inkscape:connector-curvature="0"
   style="fill:#0d0e0e" />
		<path
   d="m 67.473,10.592 h -0.81 L 65.181,5.891 h -0.022 l -1.482,4.701 h -0.81 L 61.119,5.155 h 0.735 l 1.428,4.702 h 0.022 l 1.514,-4.702 h 0.81 l 1.439,4.702 h 0.021 l 1.503,-4.702 h 0.672 z"
   id="path284"
   inkscape:connector-curvature="0"
   style="fill:#0d0e0e" />
		<path
   d="m 74.658,10.422 c -0.469,0.192 -1.077,0.298 -1.578,0.298 -1.801,0 -2.473,-1.215 -2.473,-2.846 0,-1.663 0.917,-2.846 2.292,-2.846 1.535,0 2.164,1.237 2.164,2.697 v 0.341 h -3.721 c 0,1.152 0.619,2.079 1.791,2.079 0.49,0 1.205,-0.203 1.525,-0.405 z M 74.327,7.49 c 0,-0.949 -0.384,-1.887 -1.385,-1.887 -0.992,0 -1.599,0.991 -1.599,1.887 z"
   id="path286"
   inkscape:connector-curvature="0"
   style="fill:#0d0e0e" />
		<path
   d="M 77.844,3.706 H 77.173 V 2.811 h 0.671 z m -0.671,1.45 h 0.671 v 5.437 h -0.671 z"
   id="path288"
   inkscape:connector-curvature="0"
   style="fill:#0d0e0e" />
		<path
   d="M 79.87,10.028 83.143,5.731 H 79.998 V 5.156 h 3.923 v 0.576 l -3.272,4.285 h 3.272 v 0.576 h -4.05 v -0.565 z"
   id="path290"
   inkscape:connector-curvature="0"
   style="fill:#0d0e0e" />
		<path
   d="m 89.581,10.422 c -0.469,0.192 -1.077,0.298 -1.578,0.298 -1.801,0 -2.473,-1.215 -2.473,-2.846 0,-1.663 0.917,-2.846 2.292,-2.846 1.535,0 2.164,1.237 2.164,2.697 v 0.341 h -3.721 c 0,1.152 0.619,2.079 1.791,2.079 0.49,0 1.205,-0.203 1.525,-0.405 z M 89.25,7.49 c 0,-0.949 -0.384,-1.887 -1.385,-1.887 -0.992,0 -1.599,0.991 -1.599,1.887 z"
   id="path292"
   inkscape:connector-curvature="0"
   style="fill:#0d0e0e" />
		<path
   d="m 92.096,6.371 c 0,-0.597 0,-0.821 -0.042,-1.215 h 0.671 V 6.2 h 0.021 c 0.245,-0.607 0.704,-1.172 1.397,-1.172 0.16,0 0.352,0.032 0.469,0.064 v 0.704 c -0.139,-0.043 -0.32,-0.064 -0.49,-0.064 -1.066,0 -1.354,1.194 -1.354,2.175 v 2.687 h -0.672 z"
   id="path294"
   inkscape:connector-curvature="0"
   style="fill:#0d0e0e" />
		<path
   d="M 97.149,3.706 H 96.477 V 2.811 h 0.672 z m -0.672,1.45 h 0.672 v 5.437 h -0.672 z"
   id="path296"
   inkscape:connector-curvature="0"
   style="fill:#0d0e0e" />
		<path
   d="m 99.26,9.804 c 0.405,0.203 0.896,0.341 1.418,0.341 0.64,0 1.204,-0.352 1.204,-0.97 0,-1.289 -2.612,-1.087 -2.612,-2.665 0,-1.077 0.874,-1.482 1.77,-1.482 0.288,0 0.864,0.064 1.343,0.246 l -0.064,0.586 c -0.352,-0.16 -0.831,-0.256 -1.204,-0.256 -0.693,0 -1.173,0.213 -1.173,0.906 0,1.013 2.676,0.885 2.676,2.665 0,1.152 -1.077,1.545 -1.898,1.545 -0.522,0 -1.045,-0.064 -1.525,-0.255 z"
   id="path298"
   inkscape:connector-curvature="0"
   style="fill:#0d0e0e" />
		<path
   d="m 108.192,5.88 c -0.362,-0.16 -0.799,-0.277 -1.162,-0.277 -1.311,0 -2.047,0.949 -2.047,2.27 0,1.237 0.746,2.271 1.972,2.271 0.427,0 0.821,-0.096 1.226,-0.245 l 0.064,0.629 c -0.458,0.16 -0.885,0.192 -1.396,0.192 -1.749,0 -2.601,-1.333 -2.601,-2.846 0,-1.674 1.077,-2.846 2.687,-2.846 0.65,0 1.119,0.149 1.311,0.213 z"
   id="path300"
   inkscape:connector-curvature="0"
   style="fill:#0d0e0e" />
		<path
   d="m 110.217,2.597 h 0.672 v 3.475 h 0.021 c 0.288,-0.597 0.896,-1.045 1.695,-1.045 1.461,0 1.855,0.97 1.855,2.313 v 3.251 h -0.671 V 7.352 c 0,-0.938 -0.181,-1.748 -1.289,-1.748 -1.194,0 -1.61,1.13 -1.61,2.079 v 2.91 h -0.672 V 2.597 Z"
   id="path302"
   inkscape:connector-curvature="0"
   style="fill:#0d0e0e" />
		<path
   d="m 120.622,10.422 c -0.469,0.192 -1.077,0.298 -1.578,0.298 -1.801,0 -2.473,-1.215 -2.473,-2.846 0,-1.663 0.917,-2.846 2.292,-2.846 1.535,0 2.164,1.237 2.164,2.697 v 0.341 h -3.721 c 0,1.152 0.619,2.079 1.791,2.079 0.49,0 1.205,-0.203 1.525,-0.405 z M 120.291,7.49 c 0,-0.949 -0.384,-1.887 -1.385,-1.887 -0.992,0 -1.599,0.991 -1.599,1.887 z"
   id="path304"
   inkscape:connector-curvature="0"
   style="fill:#0d0e0e" />
		<path
   d="m 126.687,3.152 h 3.645 v 0.64 h -2.91 v 2.655 h 2.761 v 0.64 h -2.761 v 2.868 h 3.038 v 0.64 h -3.773 z"
   id="path306"
   inkscape:connector-curvature="0"
   style="fill:#0d0e0e" />
		<path
   d="m 133.445,3.706 h -0.672 V 2.811 h 0.672 z m -0.671,1.45 h 0.672 v 5.437 h -0.672 z"
   id="path308"
   inkscape:connector-curvature="0"
   style="fill:#0d0e0e" />
		<path
   d="m 140.278,10.592 h -0.672 V 9.729 h -0.021 c -0.363,0.693 -0.917,0.991 -1.695,0.991 -1.492,0 -2.238,-1.236 -2.238,-2.846 0,-1.652 0.64,-2.846 2.238,-2.846 1.066,0 1.599,0.778 1.695,1.045 h 0.021 V 2.597 h 0.672 z m -2.281,-0.447 c 1.194,0 1.609,-1.28 1.609,-2.271 0,-0.991 -0.416,-2.27 -1.609,-2.27 -1.279,0 -1.61,1.215 -1.61,2.27 0,1.056 0.33,2.271 1.61,2.271 z"
   id="path310"
   inkscape:connector-curvature="0"
   style="fill:#0d0e0e" />
		<path
   d="m 147.036,10.145 c 0,1.514 -0.683,2.75 -2.548,2.75 -0.714,0 -1.364,-0.203 -1.642,-0.288 l 0.053,-0.671 c 0.415,0.214 1.013,0.384 1.599,0.384 1.727,0 1.876,-1.258 1.876,-2.793 h -0.022 c -0.362,0.789 -0.959,1.066 -1.652,1.066 -1.738,0 -2.292,-1.514 -2.292,-2.718 0,-1.652 0.64,-2.846 2.238,-2.846 0.725,0 1.194,0.096 1.695,0.746 h 0.021 V 5.156 h 0.672 v 4.989 z m -2.324,-0.128 c 1.215,0 1.652,-1.152 1.652,-2.143 0,-1.311 -0.384,-2.27 -1.609,-2.27 -1.279,0 -1.61,1.215 -1.61,2.27 0,1.066 0.426,2.143 1.567,2.143 z"
   id="path312"
   inkscape:connector-curvature="0"
   style="fill:#0d0e0e" />
		<path
   d="m 153.134,10.422 c -0.469,0.192 -1.077,0.298 -1.578,0.298 -1.801,0 -2.473,-1.215 -2.473,-2.846 0,-1.663 0.917,-2.846 2.292,-2.846 1.535,0 2.164,1.237 2.164,2.697 v 0.341 h -3.721 c 0,1.152 0.619,2.079 1.791,2.079 0.49,0 1.205,-0.203 1.525,-0.405 z M 152.803,7.49 c 0,-0.949 -0.384,-1.887 -1.385,-1.887 -0.992,0 -1.6,0.991 -1.6,1.887 z"
   id="path314"
   inkscape:connector-curvature="0"
   style="fill:#0d0e0e" />
		<path
   d="m 155.649,6.435 c 0,-0.416 0,-0.842 -0.042,-1.28 h 0.65 v 0.97 h 0.022 c 0.223,-0.49 0.628,-1.098 1.758,-1.098 1.344,0 1.855,0.895 1.855,2.089 v 3.475 h -0.671 V 7.288 c 0,-1.023 -0.362,-1.684 -1.29,-1.684 -1.226,0 -1.61,1.077 -1.61,1.983 v 3.006 H 155.65 V 6.435 Z"
   id="path316"
   inkscape:connector-curvature="0"
   style="fill:#0d0e0e" />
		<path
   d="m 164.528,5.028 c 1.759,0 2.537,1.364 2.537,2.846 0,1.482 -0.778,2.846 -2.537,2.846 -1.758,0 -2.537,-1.364 -2.537,-2.846 0,-1.482 0.779,-2.846 2.537,-2.846 z m 0,5.117 c 1.173,0 1.801,-1.013 1.801,-2.271 0,-1.258 -0.628,-2.27 -1.801,-2.27 -1.172,0 -1.801,1.013 -1.801,2.27 0,1.258 0.629,2.271 1.801,2.271 z"
   id="path318"
   inkscape:connector-curvature="0"
   style="fill:#0d0e0e" />
		<path
   d="m 168.75,9.804 c 0.405,0.203 0.895,0.341 1.418,0.341 0.64,0 1.204,-0.352 1.204,-0.97 0,-1.289 -2.612,-1.087 -2.612,-2.665 0,-1.077 0.874,-1.482 1.77,-1.482 0.288,0 0.864,0.064 1.343,0.246 l -0.064,0.586 c -0.352,-0.16 -0.831,-0.256 -1.204,-0.256 -0.693,0 -1.173,0.213 -1.173,0.906 0,1.013 2.675,0.885 2.675,2.665 0,1.152 -1.077,1.545 -1.897,1.545 -0.522,0 -1.045,-0.064 -1.524,-0.255 z"
   id="path320"
   inkscape:connector-curvature="0"
   style="fill:#0d0e0e" />
		<path
   d="m 173.728,9.804 c 0.405,0.203 0.895,0.341 1.418,0.341 0.64,0 1.204,-0.352 1.204,-0.97 0,-1.289 -2.612,-1.087 -2.612,-2.665 0,-1.077 0.874,-1.482 1.77,-1.482 0.288,0 0.864,0.064 1.343,0.246 l -0.064,0.586 c -0.352,-0.16 -0.831,-0.256 -1.204,-0.256 -0.693,0 -1.173,0.213 -1.173,0.906 0,1.013 2.675,0.885 2.675,2.665 0,1.152 -1.077,1.545 -1.897,1.545 -0.522,0 -1.045,-0.064 -1.524,-0.255 z"
   id="path322"
   inkscape:connector-curvature="0"
   style="fill:#0d0e0e" />
		<path
   d="m 182.768,10.422 c -0.469,0.192 -1.077,0.298 -1.578,0.298 -1.801,0 -2.473,-1.215 -2.473,-2.846 0,-1.663 0.917,-2.846 2.292,-2.846 1.535,0 2.164,1.237 2.164,2.697 v 0.341 h -3.721 c 0,1.152 0.619,2.079 1.791,2.079 0.49,0 1.205,-0.203 1.525,-0.405 z M 182.437,7.49 c 0,-0.949 -0.384,-1.887 -1.385,-1.887 -0.992,0 -1.599,0.991 -1.599,1.887 z"
   id="path324"
   inkscape:connector-curvature="0"
   style="fill:#0d0e0e" />
		<path
   d="m 185.283,6.435 c 0,-0.416 0,-0.842 -0.042,-1.28 h 0.65 v 0.97 h 0.021 c 0.223,-0.49 0.628,-1.098 1.758,-1.098 1.344,0 1.855,0.895 1.855,2.089 v 3.475 h -0.672 V 7.288 c 0,-1.023 -0.362,-1.684 -1.29,-1.684 -1.226,0 -1.61,1.077 -1.61,1.983 v 3.006 h -0.672 V 6.435 Z"
   id="path326"
   inkscape:connector-curvature="0"
   style="fill:#0d0e0e" />
		<path
   d="m 191.626,9.804 c 0.405,0.203 0.896,0.341 1.418,0.341 0.64,0 1.204,-0.352 1.204,-0.97 0,-1.289 -2.612,-1.087 -2.612,-2.665 0,-1.077 0.874,-1.482 1.77,-1.482 0.288,0 0.864,0.064 1.343,0.246 l -0.064,0.586 c -0.352,-0.16 -0.831,-0.256 -1.204,-0.256 -0.693,0 -1.173,0.213 -1.173,0.906 0,1.013 2.675,0.885 2.675,2.665 0,1.152 -1.077,1.545 -1.897,1.545 -0.522,0 -1.045,-0.064 -1.524,-0.255 z"
   id="path328"
   inkscape:connector-curvature="0"
   style="fill:#0d0e0e" />
		<path
   d="m 200.559,5.88 c -0.362,-0.16 -0.799,-0.277 -1.162,-0.277 -1.311,0 -2.047,0.949 -2.047,2.27 0,1.237 0.746,2.271 1.972,2.271 0.427,0 0.821,-0.096 1.226,-0.245 l 0.064,0.629 c -0.459,0.16 -0.885,0.192 -1.396,0.192 -1.749,0 -2.601,-1.333 -2.601,-2.846 0,-1.674 1.077,-2.846 2.687,-2.846 0.65,0 1.119,0.149 1.311,0.213 z"
   id="path330"
   inkscape:connector-curvature="0"
   style="fill:#0d0e0e" />
		<path
   d="m 202.584,2.597 h 0.671 v 3.475 h 0.022 c 0.288,-0.597 0.895,-1.045 1.695,-1.045 1.461,0 1.855,0.97 1.855,2.313 v 3.251 h -0.672 V 7.352 c 0,-0.938 -0.182,-1.748 -1.289,-1.748 -1.194,0 -1.61,1.13 -1.61,2.079 v 2.91 h -0.671 V 2.597 Z"
   id="path332"
   inkscape:connector-curvature="0"
   style="fill:#0d0e0e" />
		<path
   d="m 212.465,9.718 h -0.021 c -0.298,0.65 -1.056,1.002 -1.727,1.002 -1.545,0 -1.791,-1.045 -1.791,-1.535 0,-1.822 1.941,-1.907 3.348,-1.907 h 0.128 V 7 c 0,-0.928 -0.33,-1.396 -1.236,-1.396 -0.565,0 -1.097,0.128 -1.6,0.447 v -0.65 c 0.416,-0.203 1.12,-0.373 1.6,-0.373 1.343,0 1.908,0.608 1.908,2.026 v 2.399 c 0,0.437 0,0.767 0.054,1.14 h -0.662 V 9.718 Z m -0.064,-1.865 h -0.191 c -1.162,0 -2.547,0.118 -2.547,1.312 0,0.714 0.511,0.981 1.129,0.981 1.577,0 1.609,-1.375 1.609,-1.962 z"
   id="path334"
   inkscape:connector-curvature="0"
   style="fill:#0d0e0e" />
		<path
   d="m 215.962,5.731 h -1.097 V 5.156 h 1.097 V 4.762 c 0,-1.14 0.043,-2.292 1.44,-2.292 0.212,0 0.501,0.032 0.628,0.107 l -0.043,0.586 c -0.139,-0.075 -0.341,-0.117 -0.533,-0.117 -0.917,0 -0.82,0.991 -0.82,1.641 v 0.469 h 1.225 v 0.576 h -1.225 v 4.861 h -0.673 V 5.731 Z"
   id="path336"
   inkscape:connector-curvature="0"
   style="fill:#0d0e0e" />
		<path
   d="m 222.229,5.731 h -1.236 V 9.25 c 0,0.49 0.182,0.895 0.726,0.895 0.255,0 0.426,-0.053 0.617,-0.128 l 0.043,0.554 c -0.16,0.064 -0.49,0.149 -0.821,0.149 -1.193,0 -1.236,-0.821 -1.236,-1.812 V 5.731 h -1.065 V 5.156 h 1.065 V 3.845 l 0.672,-0.235 v 1.545 h 1.236 v 0.576 z"
   id="path338"
   inkscape:connector-curvature="0"
   style="fill:#0d0e0e" />
		<path
   d="m 48.498,18.687 c -0.469,-0.245 -1.141,-0.32 -1.663,-0.32 -1.929,0 -3.017,1.365 -3.017,3.209 0,1.876 1.056,3.208 3.017,3.208 0.49,0 1.237,-0.064 1.663,-0.32 l 0.042,0.64 c -0.405,0.246 -1.236,0.32 -1.706,0.32 -2.345,0 -3.752,-1.546 -3.752,-3.848 0,-2.26 1.45,-3.848 3.752,-3.848 0.437,0 1.322,0.075 1.706,0.277 z"
   id="path340"
   inkscape:connector-curvature="0"
   style="fill:#0d0e0e" />
		<path
   d="m 53.113,19.732 c 1.759,0 2.538,1.364 2.538,2.846 0,1.482 -0.778,2.846 -2.538,2.846 -1.758,0 -2.537,-1.364 -2.537,-2.846 0,-1.482 0.779,-2.846 2.537,-2.846 z m 0,5.117 c 1.173,0 1.801,-1.013 1.801,-2.271 0,-1.258 -0.628,-2.27 -1.801,-2.27 -1.172,0 -1.801,1.013 -1.801,2.27 0,1.258 0.629,2.271 1.801,2.271 z"
   id="path342"
   inkscape:connector-curvature="0"
   style="fill:#0d0e0e" />
		<path
   d="m 57.75,21.139 c 0,-0.416 0,-0.842 -0.042,-1.28 h 0.65 v 0.97 h 0.022 c 0.223,-0.49 0.628,-1.098 1.758,-1.098 1.344,0 1.855,0.895 1.855,2.089 v 3.475 H 61.322 V 21.99 c 0,-1.023 -0.362,-1.684 -1.29,-1.684 -1.226,0 -1.61,1.077 -1.61,1.983 v 3.006 H 57.75 Z"
   id="path344"
   inkscape:connector-curvature="0"
   style="fill:#0d0e0e" />
		<path
   d="m 64.967,20.435 h -1.098 v -0.576 h 1.098 v -0.394 c 0,-1.14 0.042,-2.292 1.439,-2.292 0.214,0 0.501,0.032 0.629,0.106 l -0.042,0.587 c -0.139,-0.075 -0.341,-0.117 -0.533,-0.117 -0.916,0 -0.821,0.991 -0.821,1.641 v 0.469 h 1.226 v 0.576 h -1.226 v 4.861 h -0.671 v -4.861 z"
   id="path346"
   inkscape:connector-curvature="0"
   style="fill:#0d0e0e" />
		<path
   d="m 72.536,25.125 c -0.469,0.192 -1.077,0.298 -1.578,0.298 -1.801,0 -2.473,-1.215 -2.473,-2.846 0,-1.663 0.917,-2.846 2.292,-2.846 1.535,0 2.164,1.237 2.164,2.697 v 0.341 H 69.22 c 0,1.152 0.619,2.079 1.791,2.079 0.49,0 1.205,-0.203 1.525,-0.405 z m -0.331,-2.931 c 0,-0.949 -0.384,-1.887 -1.385,-1.887 -0.992,0 -1.6,0.991 -1.6,1.887 z m -1.119,-4.435 h 0.842 l -1.344,1.535 h -0.49 z"
   id="path348"
   inkscape:connector-curvature="0"
   style="fill:#0d0e0e" />
		<path
   d="m 79.358,25.296 h -0.672 v -0.864 h -0.021 c -0.363,0.693 -0.917,0.991 -1.695,0.991 -1.492,0 -2.238,-1.236 -2.238,-2.846 0,-1.652 0.64,-2.846 2.238,-2.846 1.066,0 1.599,0.778 1.695,1.045 h 0.021 v -3.475 h 0.672 z m -2.282,-0.447 c 1.194,0 1.609,-1.28 1.609,-2.271 0,-0.991 -0.416,-2.27 -1.609,-2.27 -1.279,0 -1.61,1.215 -1.61,2.27 0,1.055 0.331,2.271 1.61,2.271 z"
   id="path350"
   inkscape:connector-curvature="0"
   style="fill:#0d0e0e" />
		<path
   d="m 85.455,25.125 c -0.469,0.192 -1.077,0.298 -1.578,0.298 -1.801,0 -2.473,-1.215 -2.473,-2.846 0,-1.663 0.917,-2.846 2.292,-2.846 1.535,0 2.164,1.237 2.164,2.697 v 0.341 h -3.721 c 0,1.152 0.619,2.079 1.791,2.079 0.49,0 1.205,-0.203 1.525,-0.405 z m -0.331,-2.931 c 0,-0.949 -0.384,-1.887 -1.385,-1.887 -0.992,0 -1.599,0.991 -1.599,1.887 z m -1.119,-4.435 h 0.842 l -1.343,1.535 h -0.49 z"
   id="path352"
   inkscape:connector-curvature="0"
   style="fill:#0d0e0e" />
		<path
   d="m 87.971,21.074 c 0,-0.597 0,-0.821 -0.042,-1.215 H 88.6 v 1.045 h 0.021 c 0.245,-0.608 0.704,-1.173 1.397,-1.173 0.16,0 0.352,0.032 0.469,0.064 v 0.704 c -0.139,-0.043 -0.32,-0.064 -0.49,-0.064 -1.066,0 -1.354,1.194 -1.354,2.175 v 2.687 h -0.672 z"
   id="path354"
   inkscape:connector-curvature="0"
   style="fill:#0d0e0e" />
		<path
   d="m 95.475,24.422 h -0.022 c -0.298,0.65 -1.055,1.002 -1.727,1.002 -1.545,0 -1.79,-1.045 -1.79,-1.535 0,-1.822 1.94,-1.907 3.347,-1.907 h 0.128 v -0.277 c 0,-0.928 -0.331,-1.396 -1.237,-1.396 -0.565,0 -1.098,0.128 -1.599,0.447 v -0.65 c 0.416,-0.203 1.119,-0.373 1.599,-0.373 1.343,0 1.908,0.608 1.908,2.026 v 2.399 c 0,0.437 0,0.767 0.053,1.14 h -0.661 v -0.876 z m -0.064,-1.865 h -0.192 c -1.162,0 -2.548,0.117 -2.548,1.311 0,0.714 0.512,0.981 1.13,0.981 1.577,0 1.61,-1.375 1.61,-1.962 z"
   id="path356"
   inkscape:connector-curvature="0"
   style="fill:#0d0e0e" />
		<path
   d="m 100.859,20.435 h -1.237 v 3.518 c 0,0.49 0.182,0.895 0.725,0.895 0.256,0 0.427,-0.053 0.619,-0.128 l 0.042,0.554 c -0.16,0.064 -0.49,0.149 -0.821,0.149 -1.194,0 -1.237,-0.821 -1.237,-1.812 v -3.177 h -1.066 v -0.576 h 1.066 v -1.311 l 0.671,-0.235 v 1.546 h 1.237 v 0.577 z"
   id="path358"
   inkscape:connector-curvature="0"
   style="fill:#0d0e0e" />
		<path
   d="m 103.566,18.409 h -0.672 v -0.895 h 0.672 z m -0.672,1.45 h 0.672 v 5.437 h -0.672 z"
   id="path360"
   inkscape:connector-curvature="0"
   style="fill:#0d0e0e" />
		<path
   d="m 108.213,19.732 c 1.759,0 2.537,1.364 2.537,2.846 0,1.482 -0.778,2.846 -2.537,2.846 -1.758,0 -2.537,-1.364 -2.537,-2.846 0,-1.482 0.778,-2.846 2.537,-2.846 z m 0,5.117 c 1.173,0 1.801,-1.013 1.801,-2.271 0,-1.258 -0.628,-2.27 -1.801,-2.27 -1.172,0 -1.801,1.013 -1.801,2.27 -0.001,1.258 0.628,2.271 1.801,2.271 z"
   id="path362"
   inkscape:connector-curvature="0"
   style="fill:#0d0e0e" />
		<path
   d="m 112.85,21.139 c 0,-0.416 0,-0.842 -0.042,-1.28 h 0.65 v 0.97 h 0.021 c 0.223,-0.49 0.628,-1.098 1.758,-1.098 1.344,0 1.855,0.895 1.855,2.089 v 3.475 H 116.42 V 21.99 c 0,-1.023 -0.362,-1.684 -1.289,-1.684 -1.226,0 -1.61,1.077 -1.61,1.983 v 3.006 h -0.672 v -4.156 z"
   id="path364"
   inkscape:connector-curvature="0"
   style="fill:#0d0e0e" />
		<path
   d="m 122.881,24.507 c 0.405,0.203 0.895,0.341 1.418,0.341 0.64,0 1.204,-0.352 1.204,-0.97 0,-1.289 -2.612,-1.087 -2.612,-2.665 0,-1.077 0.874,-1.482 1.77,-1.482 0.288,0 0.864,0.064 1.343,0.245 l -0.064,0.587 c -0.352,-0.16 -0.831,-0.256 -1.204,-0.256 -0.693,0 -1.173,0.213 -1.173,0.906 0,1.013 2.675,0.885 2.675,2.665 0,1.152 -1.077,1.546 -1.897,1.546 -0.522,0 -1.045,-0.064 -1.524,-0.255 z"
   id="path366"
   inkscape:connector-curvature="0"
   style="fill:#0d0e0e" />
		<path
   d="m 132.517,24.017 c 0,0.416 0,0.842 0.043,1.279 h -0.651 v -0.97 h -0.021 c -0.224,0.49 -0.629,1.097 -1.759,1.097 -1.343,0 -1.855,-0.896 -1.855,-2.089 v -3.475 h 0.671 v 3.305 c 0,1.024 0.363,1.685 1.29,1.685 1.226,0 1.609,-1.077 1.609,-1.983 V 19.86 h 0.672 v 4.157 z"
   id="path368"
   inkscape:connector-curvature="0"
   style="fill:#0d0e0e" />
		<path
   d="m 135.704,18.409 h -0.671 v -0.895 h 0.671 z m -0.671,1.45 h 0.671 v 5.437 h -0.671 z"
   id="path370"
   inkscape:connector-curvature="0"
   style="fill:#0d0e0e" />
		<path
   d="m 137.815,24.507 c 0.405,0.203 0.895,0.341 1.418,0.341 0.64,0 1.204,-0.352 1.204,-0.97 0,-1.289 -2.612,-1.087 -2.612,-2.665 0,-1.077 0.874,-1.482 1.77,-1.482 0.288,0 0.864,0.064 1.343,0.245 l -0.064,0.587 c -0.352,-0.16 -0.831,-0.256 -1.204,-0.256 -0.693,0 -1.173,0.213 -1.173,0.906 0,1.013 2.676,0.885 2.676,2.665 0,1.152 -1.077,1.546 -1.898,1.546 -0.522,0 -1.045,-0.064 -1.525,-0.255 z"
   id="path372"
   inkscape:connector-curvature="0"
   style="fill:#0d0e0e" />
		<path
   d="m 142.793,24.507 c 0.405,0.203 0.896,0.341 1.418,0.341 0.64,0 1.204,-0.352 1.204,-0.97 0,-1.289 -2.612,-1.087 -2.612,-2.665 0,-1.077 0.874,-1.482 1.77,-1.482 0.288,0 0.864,0.064 1.343,0.245 l -0.064,0.587 c -0.352,-0.16 -0.831,-0.256 -1.204,-0.256 -0.693,0 -1.173,0.213 -1.173,0.906 0,1.013 2.676,0.885 2.676,2.665 0,1.152 -1.077,1.546 -1.898,1.546 -0.522,0 -1.045,-0.064 -1.525,-0.255 z"
   id="path374"
   inkscape:connector-curvature="0"
   style="fill:#0d0e0e" />
		<path
   d="m 151.832,25.125 c -0.469,0.192 -1.077,0.298 -1.578,0.298 -1.801,0 -2.473,-1.215 -2.473,-2.846 0,-1.663 0.917,-2.846 2.292,-2.846 1.535,0 2.164,1.237 2.164,2.697 v 0.341 h -3.721 c 0,1.152 0.619,2.079 1.791,2.079 0.49,0 1.205,-0.203 1.525,-0.405 z m -0.33,-2.931 c 0,-0.949 -0.384,-1.887 -1.385,-1.887 -0.992,0 -1.6,0.991 -1.6,1.887 z"
   id="path376"
   inkscape:connector-curvature="0"
   style="fill:#0d0e0e" />
		<path
   d="m 48.498,33.39 c -0.469,-0.245 -1.141,-0.32 -1.663,-0.32 -1.929,0 -3.017,1.365 -3.017,3.209 0,1.876 1.056,3.208 3.017,3.208 0.49,0 1.237,-0.064 1.663,-0.32 l 0.042,0.64 c -0.405,0.246 -1.236,0.32 -1.706,0.32 -2.345,0 -3.752,-1.545 -3.752,-3.848 0,-2.26 1.45,-3.848 3.752,-3.848 0.437,0 1.322,0.074 1.706,0.277 z"
   id="path378"
   inkscape:connector-curvature="0"
   style="fill:#0d0e0e" />
		<path
   d="m 53.113,34.435 c 1.759,0 2.538,1.364 2.538,2.846 0,1.482 -0.778,2.846 -2.538,2.846 -1.758,0 -2.537,-1.364 -2.537,-2.846 0,-1.482 0.779,-2.846 2.537,-2.846 z m 0,5.117 c 1.173,0 1.801,-1.013 1.801,-2.271 0,-1.258 -0.628,-2.27 -1.801,-2.27 -1.172,0 -1.801,1.013 -1.801,2.27 0,1.258 0.629,2.271 1.801,2.271 z"
   id="path380"
   inkscape:connector-curvature="0"
   style="fill:#0d0e0e" />
		<path
   d="m 57.75,35.842 c 0,-0.416 0,-0.842 -0.042,-1.28 h 0.65 v 0.97 h 0.022 c 0.223,-0.49 0.628,-1.098 1.758,-1.098 1.344,0 1.855,0.895 1.855,2.089 V 40 h -0.671 v -3.305 c 0,-1.023 -0.362,-1.684 -1.29,-1.684 -1.226,0 -1.61,1.077 -1.61,1.983 V 40 H 57.75 Z"
   id="path382"
   inkscape:connector-curvature="0"
   style="fill:#0d0e0e" />
		<path
   d="m 64.967,35.138 h -1.098 v -0.576 h 1.098 v -0.394 c 0,-1.14 0.042,-2.292 1.439,-2.292 0.214,0 0.501,0.032 0.629,0.107 l -0.042,0.586 c -0.139,-0.075 -0.341,-0.117 -0.533,-0.117 -0.916,0 -0.821,0.991 -0.821,1.641 v 0.469 h 1.226 v 0.576 H 65.639 V 40 h -0.671 v -4.862 z"
   id="path384"
   inkscape:connector-curvature="0"
   style="fill:#0d0e0e" />
		<path
   d="m 72.536,39.829 c -0.469,0.192 -1.077,0.298 -1.578,0.298 -1.801,0 -2.473,-1.215 -2.473,-2.846 0,-1.663 0.917,-2.846 2.292,-2.846 1.535,0 2.164,1.237 2.164,2.697 v 0.341 H 69.22 c 0,1.152 0.619,2.079 1.791,2.079 0.49,0 1.205,-0.203 1.525,-0.405 z m -0.331,-2.931 c 0,-0.949 -0.384,-1.887 -1.385,-1.887 -0.992,0 -1.6,0.991 -1.6,1.887 z"
   id="path386"
   inkscape:connector-curvature="0"
   style="fill:#0d0e0e" />
		<path
   d="m 79.358,40 h -0.672 v -0.864 h -0.021 c -0.363,0.693 -0.917,0.991 -1.695,0.991 -1.492,0 -2.238,-1.236 -2.238,-2.846 0,-1.652 0.64,-2.846 2.238,-2.846 1.066,0 1.599,0.778 1.695,1.045 h 0.021 v -3.475 h 0.672 z m -2.282,-0.448 c 1.194,0 1.609,-1.28 1.609,-2.271 0,-0.991 -0.416,-2.27 -1.609,-2.27 -1.279,0 -1.61,1.215 -1.61,2.27 0,1.056 0.331,2.271 1.61,2.271 z"
   id="path388"
   inkscape:connector-curvature="0"
   style="fill:#0d0e0e" />
		<path
   d="m 85.455,39.829 c -0.469,0.192 -1.077,0.298 -1.578,0.298 -1.801,0 -2.473,-1.215 -2.473,-2.846 0,-1.663 0.917,-2.846 2.292,-2.846 1.535,0 2.164,1.237 2.164,2.697 v 0.341 h -3.721 c 0,1.152 0.619,2.079 1.791,2.079 0.49,0 1.205,-0.203 1.525,-0.405 z m -0.331,-2.931 c 0,-0.949 -0.384,-1.887 -1.385,-1.887 -0.992,0 -1.599,0.991 -1.599,1.887 z"
   id="path390"
   inkscape:connector-curvature="0"
   style="fill:#0d0e0e" />
		<path
   d="m 87.971,35.778 c 0,-0.597 0,-0.821 -0.042,-1.215 H 88.6 v 1.045 h 0.021 c 0.245,-0.607 0.704,-1.172 1.397,-1.172 0.16,0 0.352,0.032 0.469,0.064 v 0.704 c -0.139,-0.043 -0.32,-0.064 -0.49,-0.064 -1.066,0 -1.354,1.194 -1.354,2.175 V 40 h -0.672 z"
   id="path392"
   inkscape:connector-curvature="0"
   style="fill:#0d0e0e" />
		<path
   d="m 95.475,39.126 h -0.022 c -0.298,0.65 -1.055,1.002 -1.727,1.002 -1.545,0 -1.79,-1.045 -1.79,-1.535 0,-1.822 1.94,-1.907 3.347,-1.907 h 0.128 v -0.277 c 0,-0.928 -0.331,-1.396 -1.237,-1.396 -0.565,0 -1.098,0.128 -1.599,0.447 v -0.65 c 0.416,-0.203 1.119,-0.373 1.599,-0.373 1.343,0 1.908,0.608 1.908,2.025 v 2.399 c 0,0.437 0,0.767 0.053,1.14 H 95.474 V 39.126 Z M 95.411,37.26 h -0.192 c -1.162,0 -2.548,0.118 -2.548,1.312 0,0.714 0.512,0.981 1.13,0.981 1.577,0 1.61,-1.375 1.61,-1.962 z"
   id="path394"
   inkscape:connector-curvature="0"
   style="fill:#0d0e0e" />
		<path
   d="m 98.012,39.435 3.273,-4.297 H 98.14 v -0.576 h 3.923 v 0.576 l -3.272,4.285 h 3.272 V 40 h -4.05 v -0.565 z"
   id="path396"
   inkscape:connector-curvature="0"
   style="fill:#0d0e0e" />
		<path
   d="m 104.749,33.113 h -0.672 v -0.895 h 0.672 z m -0.671,1.45 h 0.672 V 40 h -0.672 z"
   id="path398"
   inkscape:connector-curvature="0"
   style="fill:#0d0e0e" />
		<path
   d="m 109.396,34.435 c 1.759,0 2.537,1.364 2.537,2.846 0,1.482 -0.778,2.846 -2.537,2.846 -1.758,0 -2.537,-1.364 -2.537,-2.846 0,-1.482 0.779,-2.846 2.537,-2.846 z m 0,5.117 c 1.173,0 1.801,-1.013 1.801,-2.271 0,-1.258 -0.628,-2.27 -1.801,-2.27 -1.172,0 -1.801,1.013 -1.801,2.27 0,1.258 0.629,2.271 1.801,2.271 z"
   id="path400"
   inkscape:connector-curvature="0"
   style="fill:#0d0e0e" />
		<path
   d="m 114.033,35.842 c 0,-0.416 0,-0.842 -0.042,-1.28 h 0.65 v 0.97 h 0.021 c 0.223,-0.49 0.628,-1.098 1.758,-1.098 1.344,0 1.855,0.895 1.855,2.089 V 40 h -0.672 v -3.305 c 0,-1.023 -0.362,-1.684 -1.289,-1.684 -1.226,0 -1.61,1.077 -1.61,1.983 V 40 h -0.672 v -4.158 z"
   id="path402"
   inkscape:connector-curvature="0"
   style="fill:#0d0e0e" />
		<path
   d="m 124.438,39.829 c -0.469,0.192 -1.077,0.298 -1.578,0.298 -1.801,0 -2.473,-1.215 -2.473,-2.846 0,-1.663 0.917,-2.846 2.292,-2.846 1.535,0 2.164,1.237 2.164,2.697 v 0.341 h -3.721 c 0,1.152 0.619,2.079 1.791,2.079 0.49,0 1.205,-0.203 1.525,-0.405 z m -0.331,-2.931 c 0,-0.949 -0.384,-1.887 -1.385,-1.887 -0.992,0 -1.6,0.991 -1.6,1.887 z"
   id="path404"
   inkscape:connector-curvature="0"
   style="fill:#0d0e0e" />
		<path
   d="m 130.513,39.051 c 0.437,0.277 0.948,0.437 1.641,0.437 0.917,0 1.674,-0.469 1.674,-1.524 0,-1.461 -3.411,-1.642 -3.411,-3.593 0,-1.194 1.045,-1.94 2.356,-1.94 0.362,0 0.948,0.053 1.46,0.245 l -0.117,0.672 c -0.331,-0.182 -0.853,-0.277 -1.354,-0.277 -0.767,0 -1.609,0.32 -1.609,1.279 0,1.493 3.411,1.503 3.411,3.678 0,1.503 -1.289,2.1 -2.441,2.1 -0.725,0 -1.29,-0.149 -1.684,-0.32 z"
   id="path406"
   inkscape:connector-curvature="0"
   style="fill:#0d0e0e" />
		<path
   d="m 138.69,40 h -0.789 l -1.844,-5.437 h 0.736 l 1.503,4.702 h 0.021 l 1.578,-4.702 h 0.703 z"
   id="path408"
   inkscape:connector-curvature="0"
   style="fill:#0d0e0e" />
		<path
   d="m 143.039,33.113 h -0.671 v -0.895 h 0.671 z m -0.672,1.45 h 0.671 V 40 h -0.671 z"
   id="path410"
   inkscape:connector-curvature="0"
   style="fill:#0d0e0e" />
		<path
   d="m 145.064,39.435 3.273,-4.297 h -3.145 v -0.576 h 3.923 v 0.576 l -3.272,4.285 h 3.272 V 40 h -4.05 v -0.565 z"
   id="path412"
   inkscape:connector-curvature="0"
   style="fill:#0d0e0e" />
		<path
   d="m 150.628,39.435 3.273,-4.297 h -3.145 v -0.576 h 3.923 v 0.576 l -3.272,4.285 h 3.272 V 40 h -4.05 v -0.565 z"
   id="path414"
   inkscape:connector-curvature="0"
   style="fill:#0d0e0e" />
		<path
   d="m 160.339,39.829 c -0.469,0.192 -1.077,0.298 -1.578,0.298 -1.801,0 -2.473,-1.215 -2.473,-2.846 0,-1.663 0.917,-2.846 2.292,-2.846 1.535,0 2.164,1.237 2.164,2.697 v 0.341 h -3.721 c 0,1.152 0.619,2.079 1.791,2.079 0.49,0 1.205,-0.203 1.525,-0.405 z m -0.331,-2.931 c 0,-0.949 -0.384,-1.887 -1.385,-1.887 -0.992,0 -1.599,0.991 -1.599,1.887 z"
   id="path416"
   inkscape:connector-curvature="0"
   style="fill:#0d0e0e" />
		<path
   d="m 162.855,35.778 c 0,-0.597 0,-0.821 -0.042,-1.215 h 0.671 v 1.045 h 0.021 c 0.245,-0.607 0.704,-1.172 1.397,-1.172 0.16,0 0.352,0.032 0.469,0.064 v 0.704 c -0.139,-0.043 -0.32,-0.064 -0.49,-0.064 -1.066,0 -1.354,1.194 -1.354,2.175 V 40 h -0.671 v -4.222 z"
   id="path418"
   inkscape:connector-curvature="0"
   style="fill:#0d0e0e" />
		<path
   d="m 170.359,39.126 h -0.022 c -0.298,0.65 -1.055,1.002 -1.727,1.002 -1.545,0 -1.79,-1.045 -1.79,-1.535 0,-1.822 1.94,-1.907 3.347,-1.907 h 0.128 v -0.277 c 0,-0.928 -0.331,-1.396 -1.237,-1.396 -0.565,0 -1.098,0.128 -1.599,0.447 v -0.65 c 0.416,-0.203 1.119,-0.373 1.599,-0.373 1.343,0 1.908,0.608 1.908,2.025 v 2.399 c 0,0.437 0,0.767 0.053,1.14 h -0.661 v -0.875 z m -0.064,-1.866 h -0.192 c -1.162,0 -2.548,0.118 -2.548,1.312 0,0.714 0.512,0.981 1.13,0.981 1.577,0 1.61,-1.375 1.61,-1.962 z"
   id="path420"
   inkscape:connector-curvature="0"
   style="fill:#0d0e0e" />
		<path
   d="m 48.498,48.093 c -0.469,-0.245 -1.141,-0.32 -1.663,-0.32 -1.929,0 -3.017,1.365 -3.017,3.209 0,1.876 1.056,3.208 3.017,3.208 0.49,0 1.237,-0.064 1.663,-0.32 l 0.042,0.64 c -0.405,0.246 -1.236,0.32 -1.706,0.32 -2.345,0 -3.752,-1.545 -3.752,-3.848 0,-2.26 1.45,-3.848 3.752,-3.848 0.437,0 1.322,0.074 1.706,0.277 z"
   id="path422"
   inkscape:connector-curvature="0"
   style="fill:#0d0e0e" />
		<path
   d="m 53.113,49.138 c 1.759,0 2.538,1.364 2.538,2.846 0,1.482 -0.778,2.846 -2.538,2.846 -1.758,0 -2.537,-1.364 -2.537,-2.846 0,-1.482 0.779,-2.846 2.537,-2.846 z m 0,5.117 c 1.173,0 1.801,-1.013 1.801,-2.271 0,-1.258 -0.628,-2.27 -1.801,-2.27 -1.172,0 -1.801,1.013 -1.801,2.27 0,1.258 0.629,2.271 1.801,2.271 z"
   id="path424"
   inkscape:connector-curvature="0"
   style="fill:#0d0e0e" />
		<path
   d="m 57.75,50.545 c 0,-0.416 0,-0.842 -0.042,-1.28 h 0.65 v 0.97 h 0.022 c 0.223,-0.49 0.628,-1.098 1.758,-1.098 1.344,0 1.855,0.896 1.855,2.089 v 3.475 h -0.671 v -3.305 c 0,-1.023 -0.362,-1.684 -1.29,-1.684 -1.226,0 -1.61,1.077 -1.61,1.982 V 54.7 H 57.75 Z"
   id="path426"
   inkscape:connector-curvature="0"
   style="fill:#0d0e0e" />
		<path
   d="m 64.967,49.841 h -1.098 v -0.576 h 1.098 v -0.394 c 0,-1.14 0.042,-2.292 1.439,-2.292 0.214,0 0.501,0.032 0.629,0.107 l -0.042,0.586 c -0.139,-0.075 -0.341,-0.117 -0.533,-0.117 -0.916,0 -0.821,0.991 -0.821,1.641 v 0.469 h 1.226 v 0.576 h -1.226 v 4.861 h -0.671 v -4.861 z"
   id="path428"
   inkscape:connector-curvature="0"
   style="fill:#0d0e0e" />
		<path
   d="m 72.536,54.532 c -0.469,0.192 -1.077,0.298 -1.578,0.298 -1.801,0 -2.473,-1.215 -2.473,-2.846 0,-1.663 0.917,-2.846 2.292,-2.846 1.535,0 2.164,1.237 2.164,2.697 v 0.341 H 69.22 c 0,1.151 0.619,2.079 1.791,2.079 0.49,0 1.205,-0.202 1.525,-0.405 z M 72.205,51.6 c 0,-0.949 -0.384,-1.887 -1.385,-1.887 -0.992,0 -1.6,0.991 -1.6,1.887 z"
   id="path430"
   inkscape:connector-curvature="0"
   style="fill:#0d0e0e" />
		<path
   d="m 79.358,54.703 h -0.672 v -0.864 h -0.021 c -0.363,0.693 -0.917,0.991 -1.695,0.991 -1.492,0 -2.238,-1.236 -2.238,-2.846 0,-1.652 0.64,-2.846 2.238,-2.846 1.066,0 1.599,0.778 1.695,1.045 h 0.021 v -3.475 h 0.672 z m -2.282,-0.448 c 1.194,0 1.609,-1.28 1.609,-2.271 0,-0.991 -0.416,-2.27 -1.609,-2.27 -1.279,0 -1.61,1.215 -1.61,2.27 0,1.056 0.331,2.271 1.61,2.271 z"
   id="path432"
   inkscape:connector-curvature="0"
   style="fill:#0d0e0e" />
		<path
   d="m 85.455,54.532 c -0.469,0.192 -1.077,0.298 -1.578,0.298 -1.801,0 -2.473,-1.215 -2.473,-2.846 0,-1.663 0.917,-2.846 2.292,-2.846 1.535,0 2.164,1.237 2.164,2.697 v 0.341 h -3.721 c 0,1.151 0.619,2.079 1.791,2.079 0.49,0 1.205,-0.202 1.525,-0.405 z M 85.124,51.6 c 0,-0.949 -0.384,-1.887 -1.385,-1.887 -0.992,0 -1.599,0.991 -1.599,1.887 z"
   id="path434"
   inkscape:connector-curvature="0"
   style="fill:#0d0e0e" />
		<path
   d="m 87.971,50.481 c 0,-0.597 0,-0.821 -0.042,-1.215 H 88.6 v 1.045 h 0.021 c 0.245,-0.607 0.704,-1.172 1.397,-1.172 0.16,0 0.352,0.032 0.469,0.064 v 0.704 c -0.139,-0.043 -0.32,-0.064 -0.49,-0.064 -1.066,0 -1.354,1.194 -1.354,2.175 v 2.687 h -0.672 z"
   id="path436"
   inkscape:connector-curvature="0"
   style="fill:#0d0e0e" />
		<path
   d="m 95.475,53.828 h -0.022 c -0.298,0.65 -1.055,1.002 -1.727,1.002 -1.545,0 -1.79,-1.045 -1.79,-1.535 0,-1.822 1.94,-1.908 3.347,-1.908 h 0.128 V 51.11 c 0,-0.927 -0.331,-1.396 -1.237,-1.396 -0.565,0 -1.098,0.128 -1.599,0.447 v -0.65 c 0.416,-0.203 1.119,-0.373 1.599,-0.373 1.343,0 1.908,0.608 1.908,2.026 v 2.399 c 0,0.437 0,0.767 0.053,1.14 h -0.661 v -0.875 z m -0.064,-1.865 h -0.192 c -1.162,0 -2.548,0.118 -2.548,1.312 0,0.714 0.512,0.981 1.13,0.981 1.577,0 1.61,-1.375 1.61,-1.962 z"
   id="path438"
   inkscape:connector-curvature="0"
   style="fill:#0d0e0e" />
		<path
   d="m 98.012,54.138 3.273,-4.297 H 98.14 v -0.576 h 3.923 v 0.576 l -3.272,4.285 h 3.272 v 0.576 h -4.05 v -0.564 z"
   id="path440"
   inkscape:connector-curvature="0"
   style="fill:#0d0e0e" />
		<path
   d="m 104.749,47.816 h -0.672 v -0.895 h 0.672 z m -0.671,1.45 h 0.672 v 5.437 h -0.672 z"
   id="path442"
   inkscape:connector-curvature="0"
   style="fill:#0d0e0e" />
		<path
   d="m 111.517,53.423 c 0,0.416 0,0.842 0.043,1.279 h -0.651 v -0.97 h -0.021 c -0.224,0.49 -0.629,1.097 -1.759,1.097 -1.343,0 -1.855,-0.895 -1.855,-2.089 v -3.475 h 0.672 v 3.305 c 0,1.024 0.363,1.685 1.29,1.685 1.226,0 1.609,-1.077 1.609,-1.983 v -3.006 h 0.671 v 4.157 z"
   id="path444"
   inkscape:connector-curvature="0"
   style="fill:#0d0e0e" />
		<path
   d="m 114.033,50.545 c 0,-0.416 0,-0.842 -0.042,-1.28 h 0.65 v 0.97 h 0.021 c 0.223,-0.49 0.628,-1.098 1.758,-1.098 1.344,0 1.855,0.896 1.855,2.089 v 3.475 h -0.672 v -3.305 c 0,-1.023 -0.362,-1.684 -1.289,-1.684 -1.226,0 -1.61,1.077 -1.61,1.982 V 54.7 h -0.672 v -4.155 z"
   id="path446"
   inkscape:connector-curvature="0"
   style="fill:#0d0e0e" />
		<path
   d="m 124.064,53.914 c 0.405,0.203 0.895,0.341 1.418,0.341 0.64,0 1.204,-0.352 1.204,-0.97 0,-1.29 -2.612,-1.087 -2.612,-2.665 0,-1.077 0.874,-1.482 1.77,-1.482 0.288,0 0.864,0.064 1.343,0.245 l -0.064,0.586 c -0.352,-0.16 -0.831,-0.256 -1.204,-0.256 -0.693,0 -1.173,0.213 -1.173,0.906 0,1.013 2.675,0.885 2.675,2.665 0,1.152 -1.077,1.545 -1.897,1.545 -0.522,0 -1.045,-0.064 -1.524,-0.255 z"
   id="path448"
   inkscape:connector-curvature="0"
   style="fill:#0d0e0e" />
		<path
   d="m 131.344,54.703 h -0.789 l -1.844,-5.437 h 0.736 l 1.503,4.702 h 0.021 l 1.578,-4.702 h 0.703 z"
   id="path450"
   inkscape:connector-curvature="0"
   style="fill:#0d0e0e" />
		<path
   d="m 135.694,47.816 h -0.671 v -0.895 h 0.671 z m -0.672,1.45 h 0.671 v 5.437 h -0.671 z"
   id="path452"
   inkscape:connector-curvature="0"
   style="fill:#0d0e0e" />
		<path
   d="m 137.719,54.138 3.273,-4.297 h -3.145 v -0.576 h 3.923 v 0.576 l -3.272,4.285 h 3.272 v 0.576 h -4.05 v -0.564 z"
   id="path454"
   inkscape:connector-curvature="0"
   style="fill:#0d0e0e" />
		<path
   d="m 143.784,50.481 c 0,-0.597 0,-0.821 -0.042,-1.215 h 0.672 v 1.045 h 0.021 c 0.245,-0.607 0.704,-1.172 1.397,-1.172 0.16,0 0.352,0.032 0.469,0.064 v 0.704 c -0.139,-0.043 -0.32,-0.064 -0.49,-0.064 -1.066,0 -1.354,1.194 -1.354,2.175 v 2.687 h -0.672 v -4.224 z"
   id="path456"
   inkscape:connector-curvature="0"
   style="fill:#0d0e0e" />
		<path
   d="m 151.288,53.828 h -0.021 c -0.298,0.65 -1.055,1.002 -1.727,1.002 -1.546,0 -1.79,-1.045 -1.79,-1.535 0,-1.822 1.94,-1.908 3.347,-1.908 h 0.128 V 51.11 c 0,-0.927 -0.331,-1.396 -1.237,-1.396 -0.565,0 -1.098,0.128 -1.599,0.447 v -0.65 c 0.416,-0.203 1.119,-0.373 1.599,-0.373 1.343,0 1.908,0.608 1.908,2.026 v 2.399 c 0,0.437 0,0.767 0.053,1.14 h -0.661 z m -0.063,-1.865 h -0.192 c -1.162,0 -2.548,0.118 -2.548,1.312 0,0.714 0.512,0.981 1.13,0.981 1.577,0 1.61,-1.375 1.61,-1.962 z"
   id="path458"
   inkscape:connector-curvature="0"
   style="fill:#0d0e0e" />
	</g>
	<g
   id="g464">
		<path
   d="m 30.989,2.827 c 0,0 -5.638,-2.469 -15.077,-2.469 h -0.003 c -9.44,0 -15.079,2.469 -15.079,2.469 0,0 -0.505,10.933 1.635,17.115 3.78,10.87 13.442,13.923 13.442,13.923 h 0.003 0.003 c 0,0 9.66,-3.053 13.442,-13.923 2.14,-6.182 1.634,-17.115 1.634,-17.115 z"
   id="path462"
   inkscape:connector-curvature="0"
   style="fill:#ff0000" />
	</g>
	<polygon
   points="18.902,18.276 18.902,25.304 12.878,25.304 12.878,18.276 5.85,18.276 5.85,12.252 12.878,12.252 12.878,5.226 18.901,5.226 18.902,12.252 25.93,12.252 25.93,18.276 "
   id="polygon466"
   style="fill:#ffffff" />
</g>
<path
   style="fill:#e5e5e5;fill-rule:evenodd;stroke:#e5e5e5;stroke-width:0.714;stroke-linecap:butt;stroke-linejoin:miter;stroke-opacity:0;fill-opacity:1;stroke-miterlimit:4;stroke-dasharray:none;opacity:1"
   d="M 249.96415,0.51043579 C 249.81967,56.903972 249.67518,56.903972 249.67518,56.903972 v 0"
   id="path499"
   inkscape:connector-curvature="0"
   inkscape:export-xdpi="107.94"
   inkscape:export-ydpi="107.94" /><path
   style="fill:#e5e5e5;fill-opacity:1;fill-rule:evenodd;stroke:#e5e5e5;stroke-width:0.81246537px;stroke-linecap:butt;stroke-linejoin:miter;stroke-opacity:1"
   d="M 245.96415,0.51043579 C 245.77661,57.32945 245.77661,57.32945 245.77661,57.32945"
   id="path5046"
   inkscape:connector-curvature="0"
   inkscape:export-xdpi="107.94"
   inkscape:export-ydpi="107.94" /><text
   xml:space="preserve"
   style="font-style:normal;font-variant:normal;font-weight:bold;font-stretch:normal;font-size:14px;line-height:100%;font-family:FrutigerNeueW02-Regular, Source Sans Pro,Helvetica Neue,Helvetica,Arial,sans-serif;-inkscape-font-specification:Arial;letter-spacing:0px;word-spacing:0px;fill:#000000;fill-opacity:1;stroke:none;stroke-width:1px;stroke-linecap:butt;stroke-linejoin:miter;stroke-opacity:1"
   x="266.21591"
   y="13.379364"
   id="text5050"
   inkscape:export-xdpi="107.94"
   inkscape:export-ydpi="107.94"><tspan
     sodipodi:role="line"
     id="tspan5048"
     x="266.21591"
     y="13.379364">Helveticat</tspan></text>

</svg>